<?xml version="1.0" encoding="utf-8"?>
<!-- Generator: Adobe Illustrator 26.5.0, SVG Export Plug-In . SVG Version: 6.00 Build 0)  -->
<svg version="1.1" id="Layer_1" xmlns="http://www.w3.org/2000/svg" xmlns:xlink="http://www.w3.org/1999/xlink" x="0px" y="0px"
	 viewBox="0 0 12 12" style="enable-background:new 0 0 12 12;" xml:space="preserve">
<style type="text/css">
	.st0{fill-rule:evenodd;clip-rule:evenodd;fill:#FFFFFF;}
	.st1{fill:#FFFFFF;}
</style>
<g>
	<path class="st0" d="M6.5,1.5c0.1,0,0.3,0.1,0.3,0.3v0.8c0,0.1,0.1,0.3,0.3,0.3c0.1,0,0.3-0.1,0.3-0.3V2h0.3c0.4,0,0.8,0.3,0.8,0.8
		v6.1c0,0.4-0.3,0.8-0.8,0.8H3.2c-0.4,0-0.8-0.3-0.8-0.8V2.7C2.5,2.3,2.8,2,3.2,2h0.5V1.7c0-0.1,0.1-0.3,0.3-0.3
		c0.1,0,0.3,0.1,0.3,0.3v0.8c0,0.1,0.1,0.3,0.3,0.3c0.1,0,0.3-0.1,0.3-0.3V2h1.5V1.7C6.3,1.6,6.4,1.5,6.5,1.5 M3.7,4.5
		c-0.1,0-0.3,0.1-0.3,0.3C3.5,4.9,3.6,5,3.7,5H7c0.1,0,0.3-0.1,0.3-0.3c0-0.1-0.1-0.3-0.3-0.3H3.7z M3.5,6c0-0.1,0.1-0.3,0.3-0.3
		h1.8c0.1,0,0.3,0.1,0.3,0.3S5.6,6.3,5.5,6.3H3.7C3.6,6.3,3.5,6.1,3.5,6 M3.7,7C3.6,7,3.5,7.1,3.5,7.3c0,0.1,0.1,0.3,0.3,0.3h2.8
		c0.1,0,0.3-0.1,0.3-0.3C6.8,7.1,6.6,7,6.5,7H3.7z"/>
	<path class="st1" d="M3.2,10.5c-1,0-1.8-0.8-1.8-1.8V2.5H2v6.3C2,9.5,2.5,10,3.2,10h4.3v0.5H3.2z M9,3.2c0-0.4,0.3-0.8,0.8-0.8
		s0.8,0.3,0.8,0.8V4H9V3.2z M9,8.3V4.5h1.5v3.8l-0.8,1L9,8.3z"/>
</g>
</svg>
