<svg width="22" height="17" viewBox="0 0 22 17" fill="none" xmlns="http://www.w3.org/2000/svg">
<g clip-path="url(#clip0_3167_18455)">
<path d="M2.17854 1.61483C1.99857 1.61483 1.82597 1.6679 1.69871 1.76236C1.57146 1.85682 1.49997 1.98494 1.49997 2.11853V5.14076C1.49997 5.27435 1.42847 5.40246 1.30122 5.49693C1.17396 5.59139 1.00136 5.64446 0.821394 5.64446C0.641426 5.64446 0.468828 5.59139 0.341571 5.49693C0.214314 5.40246 0.142822 5.27435 0.142822 5.14076V2.11853C0.142822 1.71776 0.357299 1.3334 0.739069 1.05002C1.12084 0.766628 1.63863 0.607422 2.17854 0.607422L6.24997 0.607422C6.42994 0.607422 6.60253 0.660491 6.72979 0.754953C6.85705 0.849416 6.92854 0.977535 6.92854 1.11113C6.92854 1.24472 6.85705 1.37284 6.72979 1.4673C6.60253 1.56176 6.42994 1.61483 6.24997 1.61483H2.17854ZM15.0714 1.11113C15.0714 0.977535 15.1429 0.849416 15.2701 0.754953C15.3974 0.660491 15.57 0.607422 15.75 0.607422H19.8214C20.3613 0.607422 20.8791 0.766628 21.2609 1.05002C21.6426 1.3334 21.8571 1.71776 21.8571 2.11853V5.14076C21.8571 5.27435 21.7856 5.40246 21.6584 5.49693C21.5311 5.59139 21.3585 5.64446 21.1785 5.64446C20.9986 5.64446 20.826 5.59139 20.6987 5.49693C20.5715 5.40246 20.5 5.27435 20.5 5.14076V2.11853C20.5 1.98494 20.4285 1.85682 20.3012 1.76236C20.174 1.6679 20.0014 1.61483 19.8214 1.61483H15.75C15.57 1.61483 15.3974 1.56176 15.2701 1.4673C15.1429 1.37284 15.0714 1.24472 15.0714 1.11113ZM0.821394 11.6889C1.00136 11.6889 1.17396 11.742 1.30122 11.8364C1.42847 11.9309 1.49997 12.059 1.49997 12.1926V15.2148C1.49997 15.3484 1.57146 15.4765 1.69871 15.571C1.82597 15.6655 1.99857 15.7185 2.17854 15.7185H6.24997C6.42994 15.7185 6.60253 15.7716 6.72979 15.8661C6.85705 15.9605 6.92854 16.0886 6.92854 16.2222C6.92854 16.3558 6.85705 16.4839 6.72979 16.5784C6.60253 16.6729 6.42994 16.7259 6.24997 16.7259H2.17854C1.63863 16.7259 1.12084 16.5667 0.739069 16.2833C0.357299 16 0.142822 15.6156 0.142822 15.2148L0.142822 12.1926C0.142822 12.059 0.214314 11.9309 0.341571 11.8364C0.468828 11.742 0.641426 11.6889 0.821394 11.6889ZM21.1785 11.6889C21.3585 11.6889 21.5311 11.742 21.6584 11.8364C21.7856 11.9309 21.8571 12.059 21.8571 12.1926V15.2148C21.8571 15.6156 21.6426 16 21.2609 16.2833C20.8791 16.5667 20.3613 16.7259 19.8214 16.7259H15.75C15.57 16.7259 15.3974 16.6729 15.2701 16.5784C15.1429 16.4839 15.0714 16.3558 15.0714 16.2222C15.0714 16.0886 15.1429 15.9605 15.2701 15.8661C15.3974 15.7716 15.57 15.7185 15.75 15.7185H19.8214C20.0014 15.7185 20.174 15.6655 20.3012 15.571C20.4285 15.4765 20.5 15.3484 20.5 15.2148V12.1926C20.5 12.059 20.5715 11.9309 20.6987 11.8364C20.826 11.742 20.9986 11.6889 21.1785 11.6889ZM4.21425 5.14076C4.21425 5.00716 4.28574 4.87905 4.413 4.78458C4.54026 4.69012 4.71286 4.63705 4.89282 4.63705C5.07279 4.63705 5.24539 4.69012 5.37265 4.78458C5.4999 4.87905 5.5714 5.00716 5.5714 5.14076V12.1926C5.5714 12.3262 5.4999 12.4543 5.37265 12.5488C5.24539 12.6432 5.07279 12.6963 4.89282 12.6963C4.71286 12.6963 4.54026 12.6432 4.413 12.5488C4.28574 12.4543 4.21425 12.3262 4.21425 12.1926V5.14076ZM6.92854 5.14076C6.92854 5.00716 7.00003 4.87905 7.12729 4.78458C7.25455 4.69012 7.42714 4.63705 7.60711 4.63705C7.78708 4.63705 7.95968 4.69012 8.08693 4.78458C8.21419 4.87905 8.28568 5.00716 8.28568 5.14076V12.1926C8.28568 12.3262 8.21419 12.4543 8.08693 12.5488C7.95968 12.6432 7.78708 12.6963 7.60711 12.6963C7.42714 12.6963 7.25455 12.6432 7.12729 12.5488C7.00003 12.4543 6.92854 12.3262 6.92854 12.1926V5.14076ZM9.64283 5.14076C9.64283 5.00716 9.71432 4.87905 9.84158 4.78458C9.96883 4.69012 10.1414 4.63705 10.3214 4.63705C10.5014 4.63705 10.674 4.69012 10.8012 4.78458C10.9285 4.87905 11 5.00716 11 5.14076V12.1926C11 12.3262 10.9285 12.4543 10.8012 12.5488C10.674 12.6432 10.5014 12.6963 10.3214 12.6963C10.1414 12.6963 9.96883 12.6432 9.84158 12.5488C9.71432 12.4543 9.64283 12.3262 9.64283 12.1926V5.14076ZM12.3571 5.14076C12.3571 5.00716 12.4286 4.87905 12.5559 4.78458C12.6831 4.69012 12.8557 4.63705 13.0357 4.63705H14.3928C14.5728 4.63705 14.7454 4.69012 14.8727 4.78458C14.9999 4.87905 15.0714 5.00716 15.0714 5.14076V12.1926C15.0714 12.3262 14.9999 12.4543 14.8727 12.5488C14.7454 12.6432 14.5728 12.6963 14.3928 12.6963H13.0357C12.8557 12.6963 12.6831 12.6432 12.5559 12.5488C12.4286 12.4543 12.3571 12.3262 12.3571 12.1926V5.14076ZM16.4285 5.14076C16.4285 5.00716 16.5 4.87905 16.6273 4.78458C16.7545 4.69012 16.9271 4.63705 17.1071 4.63705C17.2871 4.63705 17.4597 4.69012 17.5869 4.78458C17.7142 4.87905 17.7857 5.00716 17.7857 5.14076V12.1926C17.7857 12.3262 17.7142 12.4543 17.5869 12.5488C17.4597 12.6432 17.2871 12.6963 17.1071 12.6963C16.9271 12.6963 16.7545 12.6432 16.6273 12.5488C16.5 12.4543 16.4285 12.3262 16.4285 12.1926V5.14076Z" fill="#313A46"/>
</g>
<defs>
<clipPath id="clip0_3167_18455">
<rect width="21.7143" height="16.1185" fill="white" transform="translate(0.142822 0.607422)"/>
</clipPath>
</defs>
</svg>
